<svg width="111" height="30" viewBox="0 0 111 30" fill="none" xmlns="http://www.w3.org/2000/svg">
<path d="M0 0.00771249H15.0939V3.06892H3.50115V9.76193H12.8765V12.8231H3.50115V20.2487H15.4673V23.3099H0.00777903V0L0 0.00771249Z" fill="#E7E6E1"/>
<path d="M37.2148 6.9213H40.3983V9.33131C40.9004 8.5264 41.6347 7.88154 42.5964 7.392C43.5581 6.90247 44.586 6.6577 45.6804 6.6577C47.3195 6.6577 48.7265 7.02014 49.8966 7.74974C51.0667 8.47933 51.9621 9.48194 52.5874 10.767C53.2127 12.0473 53.5206 13.5065 53.5206 15.1351C53.5206 16.7638 53.208 18.2229 52.5874 19.5033C51.9621 20.7836 51.0667 21.7909 49.8966 22.5205C48.7265 23.2501 47.3337 23.6125 45.7135 23.6125C44.6003 23.6125 43.5533 23.3631 42.5822 22.8641C41.611 22.3652 40.8815 21.7109 40.3983 20.906V30H37.2148V6.9213ZM47.8737 20.1387C48.6412 19.6727 49.2334 19.0043 49.6597 18.1335C50.0861 17.2627 50.2993 16.2648 50.2993 15.1351C50.2993 13.417 49.8397 12.0379 48.9207 10.9929C48.0017 9.94793 46.7652 9.43016 45.2114 9.43016C44.2071 9.43016 43.3212 9.66551 42.5537 10.1315C41.7863 10.5975 41.1941 11.2659 40.763 12.1367C40.3367 13.0075 40.1235 14.0054 40.1235 15.1351C40.1235 16.8532 40.583 18.2324 41.5021 19.2773C42.4211 20.3223 43.6575 20.8401 45.2114 20.8401C46.2157 20.8401 47.1016 20.6047 47.869 20.1387H47.8737Z" fill="#E7E6E1"/>
<path d="M56.6112 0H59.7947V23.3094H56.6112V0Z" fill="#E7E6E1"/>
<path d="M67.0223 22.5205C65.7337 21.7909 64.7199 20.7883 63.9857 19.5033C63.2514 18.2229 62.8866 16.7638 62.8866 15.1351C62.8866 13.5065 63.2514 12.0473 63.9857 10.767C64.7199 9.48665 65.729 8.47933 67.0223 7.74974C68.3108 7.02014 69.7794 6.6577 71.4185 6.6577C73.0576 6.6577 74.4931 7.02014 75.7816 7.74974C77.0702 8.47933 78.0839 9.48194 78.8182 10.767C79.5525 12.0473 79.9173 13.5065 79.9173 15.1351C79.9173 16.7638 79.5525 18.2229 78.8182 19.5033C78.0839 20.7836 77.0749 21.7909 75.7816 22.5205C74.4931 23.2501 73.0245 23.6125 71.3854 23.6125C69.7462 23.6125 68.3108 23.2501 67.0223 22.5205ZM74.1567 20.1058C74.9573 19.6162 75.5732 18.9431 76.009 18.0864C76.4448 17.2298 76.6675 16.246 76.6675 15.1351C76.6675 14.0242 76.4496 13.0452 76.009 12.1838C75.5732 11.3271 74.9525 10.654 74.1567 10.1645C73.3561 9.67493 72.4465 9.43016 71.4185 9.43016C70.3905 9.43016 69.4715 9.67493 68.6614 10.1645C67.8513 10.654 67.2307 11.3271 66.7901 12.1838C66.3543 13.0405 66.1364 14.0242 66.1364 15.1351C66.1364 16.246 66.3543 17.225 66.7901 18.0864C67.226 18.9431 67.8513 19.6209 68.6614 20.1058C69.4715 20.5953 70.3905 20.8401 71.4185 20.8401C72.4465 20.8401 73.3608 20.5953 74.1567 20.1058Z" fill="#E7E6E1"/>
<path d="M83.0143 6.8286H86.1978V9.99174C86.5721 8.88558 87.1074 8.08068 87.8038 7.58173C88.5049 7.08278 89.4334 6.8333 90.594 6.8333H92.5932V9.57281H90.1961C88.7512 9.57281 87.7232 10.1282 87.1121 11.2344C86.501 12.3406 86.1931 13.8751 86.1931 15.8285V23.2609H83.0096V6.8333L83.0143 6.8286Z" fill="#E7E6E1"/>
<path d="M98.1043 22.5205C96.8157 21.7909 95.8019 20.7883 95.0676 19.5033C94.3333 18.2229 93.9686 16.7638 93.9686 15.1351C93.9686 13.5065 94.3333 12.0473 95.0676 10.767C95.8019 9.48665 96.811 8.47933 98.1043 7.74974C99.3928 7.02014 100.861 6.6577 102.5 6.6577C104.14 6.6577 105.575 7.02014 106.864 7.74974C108.152 8.47933 109.166 9.48194 109.9 10.767C110.634 12.0473 110.999 13.5065 110.999 15.1351C110.999 16.7638 110.634 18.2229 109.9 19.5033C109.166 20.7836 108.157 21.7909 106.864 22.5205C105.575 23.2501 104.106 23.6125 102.467 23.6125C100.828 23.6125 99.3928 23.2501 98.1043 22.5205ZM105.239 20.1058C106.039 19.6162 106.655 18.9431 107.091 18.0864C107.527 17.2298 107.749 16.246 107.749 15.1351C107.749 14.0242 107.532 13.0452 107.091 12.1838C106.655 11.3271 106.035 10.654 105.239 10.1645C104.438 9.67493 103.528 9.43016 102.5 9.43016C101.472 9.43016 100.553 9.67493 99.7434 10.1645C98.9333 10.654 98.3127 11.3271 97.8721 12.1838C97.4363 13.0405 97.2184 14.0242 97.2184 15.1351C97.2184 16.246 97.4363 17.225 97.8721 18.0864C98.308 18.9431 98.9333 19.6209 99.7434 20.1058C100.553 20.5953 101.472 20.8401 102.5 20.8401C103.528 20.8401 104.443 20.5953 105.239 20.1058Z" fill="#E7E6E1"/>
<path fill-rule="evenodd" clip-rule="evenodd" d="M28.14 15.0647C28.14 16.039 27.3346 16.8298 26.3493 16.8298C25.3639 16.8298 24.5585 16.039 24.5585 15.0647C24.5585 14.0903 25.3639 13.3042 26.3493 13.3042C27.3346 13.3042 28.14 14.095 28.14 15.0647Z" fill="#F19919"/>
<path fill-rule="evenodd" clip-rule="evenodd" d="M34.1226 9.14792C34.1226 9.21853 34.0989 9.27972 34.0468 9.32208L29.93 13.4125C29.8826 13.4643 29.8116 13.4925 29.7358 13.4925C29.6647 13.4925 29.5984 13.469 29.5463 13.4125L28.0019 11.8827C27.8977 11.7792 27.8977 11.6097 28.0019 11.5062L32.1187 7.41572C32.166 7.36865 32.2324 7.34041 32.2987 7.34041C32.3697 7.34041 32.4313 7.36395 32.4787 7.41572L34.0468 8.96905C34.0941 9.01612 34.1226 9.08202 34.1226 9.14321V9.14792Z" fill="#F19919"/>
<path fill-rule="evenodd" clip-rule="evenodd" d="M24.6803 18.6278L20.5636 22.7183C20.5162 22.7653 20.4499 22.7936 20.3883 22.7936C20.3172 22.7936 20.2556 22.77 20.2083 22.7183L18.6402 21.1649C18.5976 21.1179 18.5644 21.052 18.5644 20.9908C18.5644 20.9202 18.5928 20.859 18.6402 20.8072L22.757 16.7168C22.8091 16.6697 22.8754 16.6367 22.9512 16.6367C23.0222 16.6367 23.0886 16.665 23.1407 16.7168L24.685 18.2513C24.7893 18.3548 24.7893 18.5243 24.685 18.6278H24.6803Z" fill="#F19919"/>
<path fill-rule="evenodd" clip-rule="evenodd" d="M34.1226 20.9862C34.1226 21.0521 34.0989 21.1132 34.0468 21.1603L32.4787 22.7136C32.4361 22.7607 32.3697 22.789 32.2987 22.789C32.2324 22.789 32.1708 22.7654 32.1187 22.7136L28.0019 18.6232C27.8977 18.5197 27.8977 18.3502 28.0019 18.2466L29.5463 16.7121C29.5937 16.6651 29.6647 16.6321 29.7358 16.6321C29.8116 16.6321 29.8779 16.6604 29.93 16.7121L34.0468 20.8026C34.0941 20.8496 34.1226 20.9155 34.1226 20.9862Z" fill="#F19919"/>
<path fill-rule="evenodd" clip-rule="evenodd" d="M24.6811 11.8827L23.1368 13.4124C23.0894 13.4642 23.0183 13.4925 22.9473 13.4925C22.8715 13.4925 22.8099 13.4689 22.753 13.4124L18.6363 9.32201C18.5937 9.27965 18.5605 9.21375 18.5605 9.14785C18.5605 9.08195 18.5889 9.02076 18.6363 8.97369L20.2044 7.42036C20.247 7.37329 20.3133 7.34505 20.3844 7.34505C20.4507 7.34505 20.5123 7.36858 20.5597 7.42036L24.6764 11.5108C24.7806 11.6143 24.7806 11.7838 24.6764 11.8874L24.6811 11.8827Z" fill="#F19919"/>
</svg>
