<svg width="18" height="27" viewBox="0 0 18 27" fill="none" xmlns="http://www.w3.org/2000/svg">
<mask id="mask0_926_968" style="mask-type:alpha" maskUnits="userSpaceOnUse" x="-9" y="-3" width="34" height="33">
<rect x="-8.1" y="-2.7" width="32.4" height="32.4" fill="#D9D9D9"/>
</mask>
<g mask="url(#mask0_926_968)">
<path d="M2.18093 27C1.5768 27 1.06223 26.7876 0.6372 26.3628C0.2124 25.9378 0 25.4232 0 24.8191V2.18092C0 1.55947 0.208125 1.04062 0.624375 0.624375C1.04063 0.208125 1.55947 0 2.18093 0H14.123C14.7272 0 15.2416 0.2124 15.6664 0.6372C16.0914 1.06223 16.304 1.5768 16.304 2.18092V6.52151C16.6397 6.55796 16.9313 6.69735 17.1788 6.93968C17.4263 7.18178 17.55 7.47337 17.55 7.81447V10.203C17.55 10.5438 17.4263 10.8354 17.1788 11.0778C16.9313 11.3201 16.6397 11.4595 16.304 11.4959V24.8191C16.304 25.4232 16.0914 25.9378 15.6664 26.3628C15.2416 26.7876 14.7272 27 14.123 27H2.18093ZM2.18093 25.65H14.123C14.3654 25.65 14.5644 25.5722 14.7201 25.4165C14.876 25.2605 14.954 25.0614 14.954 24.8191V2.18092C14.954 1.9386 14.876 1.73947 14.7201 1.58355C14.5644 1.42785 14.3654 1.35 14.123 1.35H2.18093C1.9386 1.35 1.73948 1.42785 1.58355 1.58355C1.42785 1.73947 1.35 1.9386 1.35 2.18092V24.8191C1.35 25.0614 1.42785 25.2605 1.58355 25.4165C1.73948 25.5722 1.9386 25.65 2.18093 25.65ZM8.15198 23.2615C8.44785 23.2615 8.6949 23.1624 8.89313 22.9642C9.09135 22.7662 9.19046 22.5191 9.19046 22.223C9.19046 21.9272 9.09135 21.6801 8.89313 21.4819C8.6949 21.2837 8.44785 21.1845 8.15198 21.1845C7.85588 21.1845 7.60883 21.2837 7.41083 21.4819C7.2126 21.6801 7.11349 21.9272 7.11349 22.223C7.11349 22.5191 7.2126 22.7662 7.41083 22.9642C7.60883 23.1624 7.85588 23.2615 8.15198 23.2615Z" fill="#1C1B1F"/>
</g>
</svg>
