<svg width="18" height="17" viewBox="0 0 18 17" fill="none" xmlns="http://www.w3.org/2000/svg">
<mask id="mask0_926_928" style="mask-type:alpha" maskUnits="userSpaceOnUse" x="-3" y="-4" width="24" height="24">
<rect x="-3" y="-4" width="24" height="24" fill="#D9D9D9"/>
</mask>
<g mask="url(#mask0_926_928)">
<path d="M9 17L6.327 14.3077L7.0155 13.6L8.5 15.0788V8.577H9.5V15.0788L10.9655 13.6L11.673 14.3077L9 17ZM3.327 13.673L0.65375 10.9808L1.3615 10.273L2.827 11.752V5.25H3.827V11.752L5.3115 10.273L6 10.9808L3.327 13.673ZM14.673 13.673L11.9808 10.9808L12.6885 10.273L14.173 11.752V5.25H15.173V11.752L16.6385 10.273L17.3463 10.9808L14.673 13.673ZM0 6.7115V1.6155C0 1.15517 0.154167 0.770833 0.4625 0.4625C0.770833 0.154167 1.15517 0 1.6155 0H16.3845C16.8448 0 17.2292 0.154167 17.5375 0.4625C17.8458 0.770833 18 1.15517 18 1.6155V6.7115H17V1.6155C17 1.436 16.9423 1.2885 16.827 1.173C16.7115 1.05767 16.564 1 16.3845 1H1.6155C1.436 1 1.2885 1.05767 1.173 1.173C1.05767 1.2885 1 1.436 1 1.6155V6.7115H0Z" fill="#F19919"/>
</g>
</svg>
