<svg width="14" height="18" viewBox="0 0 14 18" fill="none" xmlns="http://www.w3.org/2000/svg">
<mask id="mask0_926_933" style="mask-type:alpha" maskUnits="userSpaceOnUse" x="-5" y="-3" width="24" height="24">
<rect x="-5" y="-3" width="24" height="24" fill="#D9D9D9"/>
</mask>
<g mask="url(#mask0_926_933)">
<path d="M1.6155 18C1.168 18 0.786833 17.8458 0.472 17.5375C0.157333 17.2292 0 16.8641 0 16.4423V5.40375C0 4.56025 0.283333 3.8205 0.85 3.1845C1.41667 2.54867 2.13333 2.17175 3 2.05375V0H5V2H9V0H11V2.05375C11.8667 2.17175 12.5833 2.54867 13.15 3.1845C13.7167 3.8205 14 4.56025 14 5.40375V16.4423C14 16.8641 13.8427 17.2292 13.528 17.5375C13.2132 17.8458 12.832 18 12.3845 18H1.6155ZM1.6155 17H12.3845C12.564 17 12.7115 16.9455 12.827 16.8365C12.9423 16.7275 13 16.5961 13 16.4423V5.40375C13 4.73842 12.7561 4.1715 12.2682 3.703C11.7804 3.23433 11.191 3 10.5 3H3.5C2.809 3 2.21958 3.23433 1.73175 3.703C1.24392 4.1715 1 4.73842 1 5.40375V16.4423C1 16.5961 1.05767 16.7275 1.173 16.8365C1.2885 16.9455 1.436 17 1.6155 17ZM10.1155 12.577H11.1155V9.65375H2.8845V10.6538H10.1155V12.577Z" fill="#F19919"/>
</g>
</svg>
