<svg width="20" height="14" viewBox="0 0 20 14" fill="none" xmlns="http://www.w3.org/2000/svg">
<mask id="mask0_926_920" style="mask-type:alpha" maskUnits="userSpaceOnUse" x="-3" y="-5" width="25" height="24">
<rect x="-2.19238" y="-5" width="24" height="24" fill="#D9D9D9"/>
</mask>
<g mask="url(#mask0_926_920)">
<path d="M12.6238 14C10.6673 14 9.01008 13.3211 7.65225 11.9633C6.29442 10.6054 5.6155 8.94825 5.6155 6.99175C5.6155 5.04975 6.29442 3.399 7.65225 2.0395C9.01008 0.679834 10.6673 0 12.6238 0C14.5656 0 16.2163 0.679834 17.576 2.0395C18.9357 3.399 19.6155 5.04975 19.6155 6.99175C19.6155 8.94825 18.9357 10.6054 17.576 11.9633C16.2163 13.3211 14.5656 14 12.6238 14ZM12.6155 13C14.2822 13 15.6988 12.4167 16.8655 11.25C18.0322 10.0833 18.6155 8.66667 18.6155 7C18.6155 5.33333 18.0322 3.91667 16.8655 2.75C15.6988 1.58333 14.2822 1 12.6155 1C10.9488 1 9.53217 1.58333 8.3655 2.75C7.19883 3.91667 6.6155 5.33333 6.6155 7C6.6155 8.66667 7.19883 10.0833 8.3655 11.25C9.53217 12.4167 10.9488 13 12.6155 13ZM15.0828 10.2058L15.7962 9.49225L13.1155 6.8115V3.30775H12.1155V7.2135L15.0828 10.2058ZM1 3.5V2.5H4.6155V3.5H1ZM0 7.5V6.5H4.6155V7.5H0ZM1 11.5V10.5H4.6155V11.5H1Z" fill="#F19919"/>
</g>
</svg>
